<?xml version="1.0" encoding="UTF-8"?>
<!DOCTYPE svg PUBLIC "-//W3C//DTD SVG 1.1//EN" "http://www.w3.org/Graphics/SVG/1.1/DTD/svg11.dtd">
<!-- Creator: CorelDRAW 2020 (64 Bit) -->
<svg xmlns="http://www.w3.org/2000/svg" xml:space="preserve" width="2380px" height="1122px" version="1.1" style="shape-rendering:geometricPrecision; text-rendering:geometricPrecision; image-rendering:optimizeQuality; fill-rule:evenodd; clip-rule:evenodd"
viewBox="0 0 419.66 197.76"
 xmlns:xlink="http://www.w3.org/1999/xlink"
 xmlns:xodm="http://www.corel.com/coreldraw/odm/2003">
 <defs>
  <style type="text/css">
   <![CDATA[
    .str0 {stroke:black;stroke-width:0.42;stroke-miterlimit:22.9256}
    .fil2 {fill:none}
    .fil0 {fill:white}
    .fil1 {fill:#990000}
   ]]>
  </style>
   <clipPath id="id0">
    <path d="M0.21 0.21l419.24 0 0 197.34 -419.24 0 0 -197.34z"/>
   </clipPath>
     <clipPath id="id1">
      <path d="M0.21 0.21l419.24 0 0 197.34 -419.24 0 0 -197.34z"/>
     </clipPath>
     <clipPath id="id2">
      <path d="M0.21 0.21l419.24 0 0 197.34 -419.24 0 0 -197.34z"/>
     </clipPath>
 </defs>
 <g id="Camada_x0020_1">
  <metadata id="CorelCorpID_0Corel-Layer"/>
  <polygon class="fil0" points="0.21,0.21 419.45,0.21 419.45,197.55 0.21,197.55 "/>
  <g style="clip-path:url(#id0)">
   <g id="_1894655377552">
    <g>
    </g>
    <g style="clip-path:url(#id1)">
     <image x="-20.77" y="-54.85" width="461.2" height="307.47" xlink:href="fundo_Images\fundo_ImgID1.png"/>
    </g>
    <g style="clip-path:url(#id2)">
     <polygon class="fil1 str0" points="-20.77,-54.85 440.43,-54.85 440.43,252.62 -20.77,252.62 "/>
    </g>
   </g>
  </g>
  <polygon class="fil2 str0" points="0.21,0.21 419.45,0.21 419.45,197.55 0.21,197.55 "/>
 </g>
</svg>
