<?xml version="1.0" encoding="UTF-8"?>
<!DOCTYPE svg PUBLIC "-//W3C//DTD SVG 1.1//EN" "http://www.w3.org/Graphics/SVG/1.1/DTD/svg11.dtd">
<!-- Creator: CorelDRAW 2020 (64 Bit) -->
<svg xmlns="http://www.w3.org/2000/svg" xml:space="preserve" width="1920px" height="514px" version="1.1" style="shape-rendering:geometricPrecision; text-rendering:geometricPrecision; image-rendering:optimizeQuality; fill-rule:evenodd; clip-rule:evenodd"
viewBox="0 0 1920 514"
 xmlns:xlink="http://www.w3.org/1999/xlink"
 xmlns:xodm="http://www.corel.com/coreldraw/odm/2003">
 <defs>
  <style type="text/css">
   <![CDATA[
    .fil1 {fill:none}
    .fil0 {fill:url(#id1)}
   ]]>
  </style>
    <clipPath id="id0">
     <rect x="168.9" y="126.69" width="1582.2" height="282.36"/>
    </clipPath>
  <linearGradient id="id1" gradientUnits="userSpaceOnUse" x1="959.5" y1="150.72" x2="959.5" y2="385.02">
   <stop offset="0" style="stop-opacity:1; stop-color:white"/>
   <stop offset="0.0588235" style="stop-opacity:1; stop-color:#B2B2B2"/>
   <stop offset="0.258824" style="stop-opacity:1; stop-color:#7D7D7D"/>
   <stop offset="0.411765" style="stop-opacity:1; stop-color:#ABABAB"/>
   <stop offset="0.509804" style="stop-opacity:1; stop-color:#E6E6E6"/>
   <stop offset="0.568627" style="stop-opacity:1; stop-color:#363636"/>
   <stop offset="0.631373" style="stop-opacity:1; stop-color:#7D7D7D"/>
   <stop offset="0.729412" style="stop-opacity:1; stop-color:#9C9C9C"/>
   <stop offset="0.858824" style="stop-opacity:1; stop-color:#D4D4D4"/>
   <stop offset="1" style="stop-opacity:1; stop-color:#8C8C8C"/>
  </linearGradient>
 </defs>
 <g id="Camada_x0020_1">
  <metadata id="CorelCorpID_0Corel-Layer"/>
  <g id="_1894204419728">
   <g style="clip-path:url(#id0)">
    <image x="168.9" y="126.69" width="1582.19" height="282.36" xlink:href="heromaker_Images\heromaker_ImgID1.png"/>
   </g>
  </g>
  <path class="fil0" d="M408.98 239.24l80.77 0 0 69.25 -80.77 0c6.22,26.13 19.26,46.15 35.29,53.43 -9.18,7.32 -19.64,11.69 -30.76,12.21 -12.88,-16.42 -26,-44.51 -30.31,-77.7l-130.86 0c-6.23,7.02 -10.99,11.44 -25.43,11.44 -14.45,0 -34,-15.22 -34,-34 0,-18.78 19.55,-34 34,-34 14.44,0 19.2,4.42 25.43,11.44l130.86 0c4.31,-33.19 17.43,-61.28 30.31,-77.71 11.12,0.53 21.58,4.89 30.76,12.22 -16.03,7.27 -29.07,27.3 -35.29,53.42zm192.37 107.79c0,13.85 6.01,25.26 18.08,34.3l0.17 0 0.18 0.18 25.8 -19.14c-8.38,-5 -12.54,-12.49 -12.54,-22.48l0 -59.03 -0.18 0 0.18 -101.19c0,-4.4 -1.01,-8.56 -2.97,-12.36 -1.49,-3.15 -3.69,-6.07 -6.42,-8.74 -1.07,-0.9 -2.2,-1.85 -3.33,-2.8 -1.07,-0.77 -2.08,-1.48 -3.15,-2.08l-1.01 -0.71 -0.9 -0.48 -0.35 -0.18 -0.36 -0.17 -0.18 0 -25.74 19.14c2.08,1.19 4.16,2.97 6.24,5.41 4.16,4.76 6.3,10.46 6.3,17.06l0 72.47c-4.45,-6.95 -12.54,-12.84 -24.43,-17.59 -5.65,-2.2 -10.94,-3.33 -15.81,-3.33l-0.72 0 -27.52 0.18 0 -64.27c0,-20.33 -10.41,-30.5 -31.16,-30.5 -16.7,0 -27.7,6.54 -32.93,19.56 21.46,0 32.22,9.1 32.22,27.29 0,63.92 0,44.12 0,152.79 -12.9,1.01 -24.55,6.54 -35.02,16.52 -5.23,5.12 -9.15,10.11 -11.83,14.99 9.51,-3.81 19.03,-5.77 28.54,-5.77 3.03,0 6.06,0.18 9.09,0.53 4.88,0.72 9.7,1.85 14.45,3.51 3.81,1.25 7.49,2.92 11,4.88l2.26 -1.55 0.18 0 25.74 -19.2 -0.18 -0.18 0.36 -0.18 -3.81 -2.26c-2.43,-2.2 -4.4,-4.63 -5.76,-7.31 -2.08,-3.81 -3.15,-8.03 -3.15,-12.54l0 -67.54c12.54,0.18 25.32,0.48 38.34,0.83 8.15,0.6 14.86,2.26 20.22,5.05 4.16,2.09 7.49,4.82 9.92,8.21l0 26.28 0.18 0 0 32.4zm85.31 -112.84c-5.23,8.92 -7.84,20.63 -7.84,35.19 0,6.25 0.53,13.08 1.6,20.51l29.97 -23 -23.73 -32.7zm-3.98 68.61c1.13,4.04 2.68,7.96 4.52,11.65 2.79,5.11 6.12,9.45 9.93,13.08 8.26,7.55 18.61,11.29 31.15,11.29 3.98,0 8.15,-0.35 12.55,-1.19l-35.5 27.17c-1.54,-0.12 -3.09,-0.29 -4.69,-0.53 -2.14,-0.36 -4.23,-0.83 -6.31,-1.37 -5.58,-1.66 -10.7,-4.1 -15.33,-7.31 -13.2,-9.34 -21.64,-24.44 -25.21,-45.48 -1.19,-6.24 -1.78,-12.72 -1.78,-19.32 0,-7.79 0.83,-15.76 2.43,-23.9 6.07,-30.15 22.83,-48.87 50.36,-56.07l34.84 48.28 -0.9 0.65 -56.06 43.05zm137.63 -89c10.35,4.04 17.84,9.93 22.48,17.59l-26.34 19.5c-0.24,-4.75 -3.51,-8.97 -9.93,-12.72l-16.88 12.37 0 72.29c0,3.57 0.65,7.02 1.9,10.29 1.07,2.55 2.49,4.87 4.4,6.95 2.08,2.56 4.16,4.4 6.24,5.59l-25.92 19.14 -0.18 -0.17 -0.18 0 -0.36 -0.18 -0.89 -0.54 -1.19 -0.65c-1.07,-0.72 -2.08,-1.43 -2.97,-2.14 -1.19,-0.89 -2.32,-1.91 -3.51,-2.92 -2.67,-2.55 -4.75,-5.41 -6.24,-8.56 -1.96,-3.8 -2.97,-7.96 -2.97,-12.36l0 -81.33c0,-6.6 -2.08,-12.31 -6.3,-17.06 -2.08,-2.44 -4.16,-4.23 -6.25,-5.41l25.81 -19.15 0.18 0 0.47 0.36 0.71 0.3 1.07 0.53c0.78,0.6 1.67,1.19 2.62,1.79 1.01,0.77 2.02,1.6 2.91,2.43 2.44,2.08 4.52,4.4 6.13,6.96 2.08,3.09 3.45,6.48 3.98,10.11l31.21 -23.01zm106.36 125.91l-32.88 25.09c-1.54,-0.12 -3.09,-0.29 -4.69,-0.53 -2.14,-0.36 -4.22,-0.83 -6.3,-1.37 -5.59,-1.66 -10.71,-4.1 -15.34,-7.31 -13.2,-9.34 -21.64,-24.38 -25.21,-45.3 -1.19,-6.25 -1.78,-12.67 -1.78,-19.15 0,-7.79 0.83,-15.75 2.43,-23.9 2.68,-13.19 7.49,-24.31 14.45,-33.23 8.86,-11.18 20.81,-18.73 35.91,-22.65 25.68,7.43 38.46,36.92 38.46,88.46 0,11.71 -0.59,24.5 -1.9,38.35l-3.15 1.54zm-25.03 -35.67c-0.24,-46.13 -9.09,-69.26 -26.51,-69.38 -5.24,8.98 -7.85,20.51 -7.85,34.72 0,8.57 0.95,18.02 2.79,28.36 1.07,8.15 4.34,15.93 9.75,23.37 5.71,7.73 12.96,12.96 21.82,15.63l0 -32.7zm281.92 -52.61c0,-4.99 -3.33,-9.39 -10.11,-13.26 -11.12,8.27 -16.7,17.07 -16.7,26.46l0 62.54c0,4.99 3.39,9.39 10.1,13.26l16.53 -12.19 0.18 -76.81zm31.57 74.91c0,2.73 0.65,5.41 2.08,7.97 1.01,2.08 2.44,4.16 4.16,6.12 2.2,2.2 4.34,3.92 6.42,5.23l-25.92 19.14c-4.28,-2.43 -7.97,-6.18 -11,-11.17 -2.2,-3.69 -4.04,-7.97 -5.53,-12.85l-32.4 24.02c-15.69,-6.18 -24.73,-16.29 -27.17,-30.49l-0.18 0c-0.47,-2.32 -0.77,-5 -0.89,-7.97l0.18 0 0 -59.57c0,-6.18 3.27,-12.72 9.75,-19.68 5.11,-5.59 12.25,-11.24 21.4,-16.94 10.47,-6.6 20.87,-12.07 31.22,-16.35 10.22,3.92 17.65,9.69 22.29,17.24 3.69,6.06 5.59,12.96 5.59,20.75l0 74.55zm90.19 -81.87c-3.93,-1.07 -7.79,-3.03 -11.48,-5.94l-20.75 15.34 0 14.44 32.23 -23.84zm-64.09 -50.17c0,-3.75 -0.66,-7.14 -1.91,-10.29 -1.07,-2.44 -2.49,-4.75 -4.39,-6.95 -2.09,-2.32 -4.17,-4.11 -6.25,-5.24l25.98 -19.14 0.18 0 0.12 0.18 0.36 0.12 0.89 0.53 1.19 0.72c1.07,0.59 2.08,1.25 2.97,2.08 1.19,0.83 2.26,1.72 3.33,2.79 2.79,2.68 4.93,5.53 6.42,8.56 2.02,3.93 2.97,8.09 2.97,12.55l0 59.51 38.35 -28.54 0.18 0.18 0.12 -0.36c0.95,1.61 2.08,3.15 3.33,4.52 1.72,1.9 3.68,3.39 5.76,4.52 3.57,2.26 7.61,3.33 12.01,3.33 2.44,0 5,-0.36 7.67,-1.07 -2.08,4.34 -5.05,8.5 -8.92,12.54 -3.21,3.51 -6.6,6.13 -10.04,7.85 -3.51,1.78 -7.02,2.62 -10.47,2.62 -1.07,0 -2.08,-0.06 -3.15,-0.18 9.28,4.1 16.17,9.75 20.57,17.06 3.45,5.83 5.23,12.43 5.23,19.86l0 41.14c0,9.99 4.16,17.48 12.55,22.47l-25.8 19.14 -0.18 -0.17 -0.18 0c-11.71,-8.8 -17.78,-19.92 -18.13,-33.3l0 -49.58c0,-4.94 -3.33,-9.33 -10.05,-13.26l-18.85 13.91 0 40.79c0,9.99 4.16,17.48 12.55,22.47l-25.92 19.14 -0.18 -0.17 -0.18 0c-12.07,-9.04 -18.13,-20.52 -18.13,-34.31l0 -136.02zm149.58 39.89c-5.23,8.92 -7.85,20.63 -7.85,35.19 0,6.25 0.53,13.08 1.6,20.51l29.97 -23 -23.72 -32.7zm-3.99 68.61c1.13,4.04 2.68,7.96 4.52,11.65 2.8,5.11 6.13,9.45 9.93,13.08 8.26,7.55 18.61,11.29 31.15,11.29 3.99,0 8.15,-0.35 12.55,-1.19l-35.49 27.17c-1.55,-0.12 -3.1,-0.29 -4.7,-0.53 -2.14,-0.36 -4.22,-0.83 -6.3,-1.37 -5.59,-1.66 -10.7,-4.1 -15.34,-7.31 -13.2,-9.34 -21.64,-24.44 -25.21,-45.48 -1.19,-6.24 -1.78,-12.72 -1.78,-19.32 0,-7.79 0.83,-15.76 2.43,-23.9 6.07,-30.15 22.83,-48.87 50.36,-56.07l34.84 48.28 -0.89 0.65 -56.07 43.05zm137.63 -89c10.35,4.04 17.84,9.93 22.48,17.59l-26.34 19.5c-0.24,-4.75 -3.51,-8.97 -9.93,-12.72l-16.88 12.37 0 72.29c0,3.57 0.65,7.02 1.9,10.29 1.07,2.55 2.5,4.87 4.4,6.95 2.08,2.56 4.16,4.4 6.24,5.59l-25.92 19.14 -0.18 -0.17 -0.18 0 -0.35 -0.18 -0.89 -0.54 -1.19 -0.65c-1.07,-0.72 -2.08,-1.43 -2.98,-2.14 -1.18,-0.89 -2.31,-1.91 -3.5,-2.92 -2.68,-2.55 -4.76,-5.41 -6.25,-8.56 -1.96,-3.8 -2.97,-7.96 -2.97,-12.36l0 -81.33c0,-6.6 -2.08,-12.31 -6.3,-17.06 -2.08,-2.44 -4.16,-4.23 -6.24,-5.41l25.8 -19.15 0.18 0 0.47 0.36 0.72 0.3 1.07 0.53c0.77,0.6 1.66,1.19 2.61,1.79 1.01,0.77 2.02,1.6 2.92,2.43 2.43,2.08 4.51,4.4 6.12,6.96 2.08,3.09 3.45,6.48 3.98,10.11l31.21 -23.01zm-475.01 109.39c0,9.99 4.16,17.48 12.42,22.47l-25.8 19.14 -0.18 -0.17 -0.18 0c-11.95,-9.04 -17.95,-20.52 -17.95,-34.31l0 -78.89c0,-4.99 -3.27,-9.39 -9.93,-13.26l-16.88 12.37 0 72.65c0,9.99 4.1,17.48 12.36,22.47l-25.74 19.14 -0.18 -0.17 -0.18 0c-12.06,-9.04 -18.13,-20.52 -18.13,-34.31l0 -74.37c0,-6.6 -2.08,-12.31 -6.3,-17.06 -2.08,-2.44 -4.16,-4.23 -6.24,-5.41l25.8 -19.15 0.18 0 0.47 0.36 0.72 0.3 1.07 0.53c0.77,0.6 1.66,1.19 2.61,1.79 1.01,0.77 2.02,1.6 2.92,2.43 2.43,2.08 4.51,4.4 6.12,6.96 2.08,3.09 3.45,6.48 3.98,10.11l31.21 -23.01c13.08,5.11 21.64,13.26 25.57,24.37l32.76 -24.37c10.22,3.92 17.65,9.69 22.29,17.24 3.75,6.06 5.59,12.96 5.59,20.75l0 71.4c0,9.99 4.16,17.48 12.54,22.47l-25.8 19.14 -0.18 -0.17 -0.18 0c-12.06,-9.04 -18.07,-20.52 -18.07,-34.31l0 -78.89c0,-4.99 -3.33,-9.39 -9.93,-13.26l-16.76 12.37 0 72.65zm505.48 -83.95l110.99 0 30.09 17.32 30.09 17.31 -30.09 17.31 -30.09 17.31 -161.07 0 0 -52.34 4.76 -3.49 0.97 19.42 44.35 -32.84z"/>
  <rect class="fil1" width="1920" height="514"/>
 </g>
</svg>
