<?xml version="1.0" encoding="UTF-8"?>
<!DOCTYPE svg PUBLIC "-//W3C//DTD SVG 1.1//EN" "http://www.w3.org/Graphics/SVG/1.1/DTD/svg11.dtd">
<!-- Creator: CorelDRAW 2020 (64 Bit) -->
<svg xmlns="http://www.w3.org/2000/svg" xml:space="preserve" width="826px" height="167px" version="1.1" style="shape-rendering:geometricPrecision; text-rendering:geometricPrecision; image-rendering:optimizeQuality; fill-rule:evenodd; clip-rule:evenodd"
viewBox="0 0 65.4 13.19"
 xmlns:xlink="http://www.w3.org/1999/xlink"
 xmlns:xodm="http://www.corel.com/coreldraw/odm/2003">
 <defs>
  <style type="text/css">
   <![CDATA[
    .fil0 {fill:url(#id1)}
   ]]>
  </style>
    <clipPath id="id0">
     <rect width="65.4" height="13.19"/>
    </clipPath>
  <linearGradient id="id1" gradientUnits="userSpaceOnUse" x1="32.66" y1="1.9" x2="32.66" y2="11.3">
   <stop offset="0" style="stop-opacity:1; stop-color:white"/>
   <stop offset="0.0588235" style="stop-opacity:1; stop-color:#B2B2B2"/>
   <stop offset="0.258824" style="stop-opacity:1; stop-color:#7D7D7D"/>
   <stop offset="0.411765" style="stop-opacity:1; stop-color:#ABABAB"/>
   <stop offset="0.509804" style="stop-opacity:1; stop-color:#E6E6E6"/>
   <stop offset="0.568627" style="stop-opacity:1; stop-color:#363636"/>
   <stop offset="0.631373" style="stop-opacity:1; stop-color:#7D7D7D"/>
   <stop offset="0.729412" style="stop-opacity:1; stop-color:#9C9C9C"/>
   <stop offset="0.858824" style="stop-opacity:1; stop-color:#D4D4D4"/>
   <stop offset="1" style="stop-opacity:1; stop-color:#8C8C8C"/>
  </linearGradient>
 </defs>
 <g id="Camada_x0020_1">
  <metadata id="CorelCorpID_0Corel-Layer"/>
  <g id="_1894208291968">
   <g style="clip-path:url(#id0)">
    <image x="0" y="0" width="65.4" height="13.19" xlink:href="heromaker2_Images\heromaker2_ImgID1.png"/>
   </g>
  </g>
  <path class="fil0" d="M10.57 5.45l3.24 0 0 2.78 -3.24 0c0.25,1.04 0.77,1.85 1.42,2.14 -0.37,0.29 -0.79,0.47 -1.24,0.49 -0.52,-0.66 -1.04,-1.79 -1.21,-3.12l-5.26 0c-0.25,0.28 -0.44,0.46 -1.02,0.46 -0.58,0 -1.36,-0.61 -1.36,-1.36 0,-0.76 0.78,-1.37 1.36,-1.37 0.58,0 0.77,0.18 1.02,0.46l5.26 0c0.17,-1.33 0.69,-2.46 1.21,-3.12 0.45,0.03 0.87,0.2 1.24,0.49 -0.65,0.3 -1.17,1.1 -1.42,2.15zm7.72 4.32c0,0.56 0.24,1.02 0.72,1.38l0.01 0 0.01 0.01 1.03 -0.77c-0.33,-0.2 -0.5,-0.5 -0.5,-0.9l0 -2.37 -0.01 0 0.01 -4.06c0,-0.18 -0.04,-0.35 -0.12,-0.5 -0.06,-0.12 -0.15,-0.24 -0.26,-0.35 -0.04,-0.03 -0.09,-0.07 -0.13,-0.11 -0.04,-0.03 -0.08,-0.06 -0.13,-0.08l-0.04 -0.03 -0.03 -0.02 -0.02 -0.01 -0.01 -0.01 -0.01 0 -1.03 0.77c0.08,0.05 0.16,0.12 0.25,0.22 0.17,0.19 0.25,0.42 0.25,0.68l0 2.91c-0.18,-0.28 -0.5,-0.51 -0.98,-0.71 -0.23,-0.08 -0.44,-0.13 -0.63,-0.13l-0.03 0 -1.11 0.01 0 -2.58c0,-0.82 -0.41,-1.22 -1.25,-1.22 -0.67,0 -1.11,0.26 -1.32,0.78 0.86,0 1.29,0.37 1.29,1.1 0,2.56 0,1.77 0,6.13 -0.51,0.04 -0.98,0.26 -1.4,0.66 -0.21,0.2 -0.37,0.4 -0.47,0.6 0.38,-0.15 0.76,-0.23 1.14,-0.23 0.12,0 0.24,0.01 0.37,0.02 0.19,0.03 0.38,0.07 0.57,0.14 0.16,0.05 0.31,0.12 0.45,0.2l0.09 -0.07 0 0 1.04 -0.77 -0.01 0 0.01 -0.01 -0.15 -0.09c-0.1,-0.09 -0.18,-0.19 -0.23,-0.29 -0.08,-0.16 -0.13,-0.33 -0.13,-0.51l0 -2.71c0.51,0.01 1.02,0.02 1.54,0.04 0.33,0.02 0.6,0.09 0.81,0.2 0.17,0.08 0.3,0.19 0.4,0.33l0 1.05 0.01 0 0 1.3zm3.42 -4.52c-0.21,0.35 -0.31,0.82 -0.31,1.41 0,0.25 0.02,0.52 0.06,0.82l1.2 -0.92 -0.95 -1.31zm-0.16 2.75c0.05,0.16 0.11,0.32 0.18,0.47 0.12,0.2 0.25,0.37 0.4,0.52 0.33,0.3 0.75,0.45 1.25,0.45 0.16,0 0.33,-0.01 0.5,-0.04l-1.42 1.09c-0.06,-0.01 -0.12,-0.02 -0.19,-0.03 -0.08,-0.01 -0.17,-0.03 -0.25,-0.05 -0.22,-0.07 -0.43,-0.17 -0.62,-0.29 -0.53,-0.38 -0.86,-0.98 -1.01,-1.83 -0.05,-0.25 -0.07,-0.51 -0.07,-0.77 0,-0.32 0.03,-0.64 0.1,-0.96 0.24,-1.21 0.91,-1.96 2.02,-2.25l1.4 1.93 -0.04 0.03 -2.25 1.73zm5.52 -3.57c0.42,0.16 0.72,0.4 0.91,0.7l-1.06 0.79c-0.01,-0.2 -0.14,-0.36 -0.4,-0.52l-0.68 0.5 0 2.9c0,0.14 0.03,0.28 0.08,0.41 0.04,0.11 0.1,0.2 0.18,0.28 0.08,0.11 0.16,0.18 0.25,0.23l-1.04 0.77 -0.01 -0.01 -0.01 0 -0.01 -0.01 -0.04 -0.02 -0.05 -0.03c-0.04,-0.02 -0.08,-0.05 -0.11,-0.08 -0.05,-0.04 -0.1,-0.08 -0.15,-0.12 -0.1,-0.1 -0.19,-0.22 -0.25,-0.34 -0.07,-0.16 -0.12,-0.32 -0.12,-0.5l0 -3.26c0,-0.27 -0.08,-0.5 -0.25,-0.69 -0.08,-0.09 -0.17,-0.17 -0.25,-0.21l1.04 -0.77 0 0 0.02 0.01 0.03 0.01 0.04 0.03c0.04,0.02 0.07,0.04 0.11,0.07 0.04,0.03 0.08,0.06 0.12,0.1 0.09,0.08 0.18,0.17 0.24,0.27 0.09,0.13 0.14,0.26 0.16,0.41l1.25 -0.92zm4.27 5.05l-1.32 1.01c-0.06,-0.01 -0.12,-0.02 -0.19,-0.03 -0.08,-0.01 -0.17,-0.03 -0.25,-0.05 -0.22,-0.07 -0.43,-0.17 -0.61,-0.29 -0.53,-0.38 -0.87,-0.98 -1.02,-1.82 -0.04,-0.25 -0.07,-0.51 -0.07,-0.77 0,-0.31 0.04,-0.63 0.1,-0.96 0.11,-0.53 0.3,-0.97 0.58,-1.33 0.36,-0.45 0.84,-0.75 1.44,-0.91 1.03,0.3 1.54,1.48 1.54,3.55 0,0.47 -0.02,0.98 -0.07,1.54l-0.13 0.06zm-1 -1.43c-0.01,-1.85 -0.37,-2.78 -1.07,-2.79 -0.21,0.36 -0.31,0.83 -0.31,1.4 0,0.34 0.04,0.72 0.11,1.14 0.04,0.32 0.17,0.63 0.39,0.93 0.23,0.31 0.52,0.52 0.88,0.63l0 -1.31zm11.31 -2.11c0,-0.2 -0.13,-0.38 -0.41,-0.54 -0.44,0.34 -0.67,0.69 -0.67,1.07l0 2.51c0,0.2 0.14,0.37 0.41,0.53l0.66 -0.49 0.01 -3.08zm1.27 3c0,0.11 0.02,0.22 0.08,0.32 0.04,0.09 0.1,0.17 0.17,0.25 0.08,0.09 0.17,0.16 0.25,0.21l-1.04 0.77c-0.17,-0.1 -0.32,-0.25 -0.44,-0.45 -0.09,-0.15 -0.16,-0.32 -0.22,-0.52l-1.3 0.97c-0.63,-0.25 -0.99,-0.66 -1.09,-1.23l-0.01 0c-0.02,-0.09 -0.03,-0.2 -0.03,-0.32l0 0 0 -2.39c0,-0.25 0.14,-0.51 0.4,-0.79 0.2,-0.22 0.49,-0.45 0.85,-0.68 0.42,-0.26 0.84,-0.48 1.26,-0.65 0.41,0.15 0.71,0.39 0.89,0.69 0.15,0.24 0.23,0.52 0.23,0.83l0 2.99zm3.61 -3.28c-0.15,-0.05 -0.31,-0.12 -0.46,-0.24l-0.83 0.61 0 0.58 1.29 -0.95zm-2.57 -2.02c0,-0.15 -0.02,-0.28 -0.07,-0.41 -0.05,-0.1 -0.1,-0.19 -0.18,-0.28 -0.08,-0.09 -0.17,-0.16 -0.25,-0.21l1.04 -0.77 0.01 0 0 0.01 0.02 0.01 0.03 0.02 0.05 0.03c0.04,0.02 0.09,0.05 0.12,0.08 0.05,0.03 0.09,0.07 0.13,0.11 0.12,0.11 0.2,0.22 0.26,0.35 0.08,0.15 0.12,0.32 0.12,0.5l0 2.39 1.54 -1.15 0.01 0.01 0 -0.02c0.04,0.07 0.09,0.13 0.14,0.19 0.06,0.07 0.14,0.13 0.23,0.18 0.14,0.09 0.3,0.13 0.48,0.13 0.1,0 0.2,-0.01 0.31,-0.04 -0.09,0.17 -0.21,0.34 -0.36,0.5 -0.13,0.14 -0.27,0.25 -0.4,0.32 -0.15,0.07 -0.29,0.1 -0.42,0.1 -0.05,0 -0.09,0 -0.13,-0.01 0.37,0.17 0.65,0.4 0.82,0.69 0.14,0.23 0.21,0.5 0.21,0.8l0 1.65c0,0.4 0.17,0.7 0.51,0.9l-1.04 0.77 0 -0.01 -0.01 0c-0.47,-0.35 -0.71,-0.8 -0.73,-1.34l0 -1.99c0,-0.19 -0.13,-0.37 -0.4,-0.53l-0.76 0.56 0 1.64c0,0.4 0.17,0.7 0.5,0.9l-1.04 0.77 0 -0.01 -0.01 0c-0.48,-0.36 -0.73,-0.82 -0.73,-1.38l0 -5.46zm6 1.61c-0.21,0.35 -0.31,0.82 -0.31,1.41 0,0.25 0.02,0.52 0.06,0.82l1.21 -0.92 -0.96 -1.31zm-0.16 2.75c0.05,0.16 0.11,0.32 0.19,0.47 0.11,0.2 0.24,0.37 0.39,0.52 0.34,0.3 0.75,0.45 1.25,0.45 0.16,0 0.33,-0.01 0.51,-0.04l-1.43 1.09c-0.06,-0.01 -0.12,-0.02 -0.18,-0.03 -0.09,-0.01 -0.17,-0.03 -0.26,-0.05 -0.22,-0.07 -0.43,-0.17 -0.61,-0.29 -0.53,-0.38 -0.87,-0.98 -1.01,-1.83 -0.05,-0.25 -0.08,-0.51 -0.08,-0.77 0,-0.32 0.04,-0.64 0.1,-0.96 0.24,-1.21 0.92,-1.96 2.02,-2.25l1.4 1.93 -0.04 0.03 -2.25 1.73zm5.53 -3.57c0.41,0.16 0.71,0.4 0.9,0.7l-1.06 0.79c-0.01,-0.2 -0.14,-0.36 -0.4,-0.52l-0.67 0.5 0 2.9c0,0.14 0.02,0.28 0.07,0.41 0.05,0.11 0.1,0.2 0.18,0.28 0.08,0.11 0.17,0.18 0.25,0.23l-1.04 0.77 -0.01 -0.01 0 0 -0.02 -0.01 -0.04 -0.02 -0.04 -0.03c-0.05,-0.02 -0.09,-0.05 -0.12,-0.08 -0.05,-0.04 -0.1,-0.08 -0.14,-0.12 -0.11,-0.1 -0.19,-0.22 -0.25,-0.34 -0.08,-0.16 -0.12,-0.32 -0.12,-0.5l0 -3.26c0,-0.27 -0.09,-0.5 -0.26,-0.69 -0.08,-0.09 -0.16,-0.17 -0.25,-0.21l1.04 -0.77 0.01 0 0.02 0.01 0.02 0.01 0.05 0.03c0.03,0.02 0.06,0.04 0.1,0.07 0.04,0.03 0.08,0.06 0.12,0.1 0.1,0.08 0.18,0.17 0.24,0.27 0.09,0.13 0.14,0.26 0.16,0.41l1.26 -0.92zm-19.06 4.39c0,0.4 0.16,0.7 0.5,0.9l-1.04 0.77 -0.01 -0.01 0 0c-0.48,-0.36 -0.72,-0.82 -0.72,-1.38l0 -3.16c0,-0.2 -0.14,-0.38 -0.4,-0.54l-0.68 0.5 0 2.92c0,0.4 0.16,0.7 0.5,0.9l-1.04 0.77 0 -0.01 -0.01 0c-0.49,-0.36 -0.73,-0.82 -0.73,-1.38l0 -2.98c0,-0.27 -0.08,-0.5 -0.25,-0.69 -0.08,-0.09 -0.17,-0.17 -0.25,-0.21l1.03 -0.77 0.01 0 0.02 0.01 0.03 0.01 0.04 0.03c0.03,0.02 0.07,0.04 0.11,0.07 0.04,0.03 0.08,0.06 0.11,0.1 0.1,0.08 0.18,0.17 0.25,0.27 0.08,0.13 0.14,0.26 0.16,0.41l1.25 -0.92c0.53,0.2 0.87,0.53 1.03,0.97l1.31 -0.97c0.41,0.15 0.71,0.39 0.9,0.69 0.15,0.24 0.22,0.52 0.22,0.83l0 2.87c0,0.4 0.17,0.7 0.5,0.9l-1.03 0.77 -0.01 -0.01 -0.01 0c-0.48,-0.36 -0.72,-0.82 -0.72,-1.38l0 -3.16c0,-0.2 -0.14,-0.38 -0.4,-0.54l-0.67 0.5 0 2.92zm20.28 -3.37l4.45 0 1.21 0.69 1.21 0.7 -1.21 0.69 -1.21 0.7 -6.46 0 0 -2.1 0.19 -0.14 0.04 0.78 1.78 -1.32z"/>
 </g>
</svg>
